<?xml version="1.0" encoding="UTF-8" standalone="no"?>
<svg
   id="Layer_1"
   data-name="Layer 1"
   viewBox="0 0 746.22009 220.43001"
   version="1.1"
   sodipodi:docname="pandas.svg"
   inkscape:version="1.3 (0e150ed6c4, 2023-07-21)"
   width="746.22009"
   height="220.43001"
   xmlns:inkscape="http://www.inkscape.org/namespaces/inkscape"
   xmlns:sodipodi="http://sodipodi.sourceforge.net/DTD/sodipodi-0.dtd"
   xmlns="http://www.w3.org/2000/svg"
   xmlns:svg="http://www.w3.org/2000/svg">
  <sodipodi:namedview
     id="namedview13"
     pagecolor="#ffffff"
     bordercolor="#000000"
     borderopacity="0.25"
     inkscape:showpageshadow="2"
     inkscape:pageopacity="0.0"
     inkscape:pagecheckerboard="0"
     inkscape:deskcolor="#d1d1d1"
     inkscape:zoom="0.76835688"
     inkscape:cx="750.95312"
     inkscape:cy="352.04995"
     inkscape:window-width="1920"
     inkscape:window-height="1038"
     inkscape:window-x="0"
     inkscape:window-y="42"
     inkscape:window-maximized="1"
     inkscape:current-layer="Layer_1" />
  <defs
     id="defs1">
    <style
       id="style1">.cls-1{fill:#fff;}.cls-2{fill:#ffca00;}.cls-3{fill:#e70488;}</style>
  </defs>
  <title
     id="title1">Artboard 63 copy 2</title>
  <path
     class="cls-1"
     d="m 254.66,143.82 c -10.27,0 -20.73,-4.25 -27.28,-12.58 v 45 H 206.81 V 65.150001 h 18.6 l 0.71,12.22 c 6.38,-9.39 17.71,-14.35 28.52,-14.35 20.73,0 36,17.37 36,40.399999 0,23.03 -15.25,40.41 -35.98,40.4 z m -6.37,-65.549999 c -12.05,0 -21.79,9.39 -21.79,25.159999 0,15.77 9.74,25.18 21.79,25.18 12.05,0 21.79,-9.39 21.79,-25.16 0,-15.769999 -9.74,-25.179999 -21.79,-25.179999 z"
     id="path1"
     style="fill:#000000" />
  <path
     class="cls-1"
     d="m 368.17,141.71 -0.71,-12.22 c -6.38,9.39 -17.72,14.35 -28.53,14.34 -20.73,0 -36,-17.36 -36,-40.39 0,-23.029999 15.24,-40.399999 36,-40.389999 10.81,0 22.15,5 28.53,14.35 l 0.71,-12.22 h 18.64 V 141.71 Z M 345.32,78.280001 c -12.05,0 -21.79,9.39 -21.8,25.159999 -0.01,15.77 9.74,25.17 21.79,25.17 12.05,0 21.8,-9.39 21.8,-25.16 0,-15.769999 -9.74,-25.169999 -21.79,-25.169999 z"
     id="path2"
     style="fill:#000000" />
  <path
     class="cls-1"
     d="M 458.68,141.72 V 99.380001 c 0,-14.88 -5.13,-19.84 -14.52,-19.84 -9.75,0 -20.38,8.85 -20.38,19.48 V 141.72 H 403.22 V 65.180001 h 18.79 l 0.89,14.18 c 5.14,-9.75 16.65,-16.3 28.35,-16.3 20.37,0 28,14.18 28,33.13 V 141.73 Z"
     id="path3"
     style="fill:#000000" />
  <path
     class="cls-1"
     d="m 554.58,141.74 -0.71,-12.23 c -6.38,9.39 -17.72,14.35 -28.52,14.35 -20.73,0 -36,-17.37 -36,-40.4 0,-23.029999 15.24,-40.389999 36,-40.389999 10.27,0 20.72,4.26 27.28,12.58 v -40.21 h 20.56 V 141.74 Z M 531.73,78.310001 c -12,0 -21.79,9.39 -21.79,25.149999 0,15.76 9.74,25.15 21.79,25.15 12.05,0 21.79,-9.38 21.79,-25.15 0,-15.769999 -9.71,-25.149999 -21.79,-25.149999 z"
     id="path4"
     style="fill:#000000" />
  <path
     class="cls-1"
     d="m 650.41,141.75 -0.71,-12.22 c -6.38,9.39 -17.72,14.34 -28.53,14.34 -20.73,0 -36,-17.36 -36,-40.4 0,-23.039999 15.24,-40.389999 36,-40.389999 10.81,0 22.15,5 28.53,14.36 l 0.71,-12.23 h 18.6 V 141.74 Z M 627.56,78.320001 c -12,0 -21.79,9.39 -21.8,25.159999 -0.01,15.77 9.75,25.13 21.79,25.13 12.04,0 21.8,-9.39 21.8,-25.16 0,-15.769999 -9.74,-25.129999 -21.79,-25.129999 z"
     id="path5"
     style="fill:#000000" />
  <path
     class="cls-1"
     d="m 714.54,144.24 a 60.16,60.16 0 0 1 -30.65,-8.69 l 3.37,-14.17 c 6.2,3.72 15.59,8.51 26.93,8.51 8.15,0 13.82,-2.48 13.82,-8.86 0,-5.49 -5.85,-7.44 -16.3,-9.92 -18.78,-4.08 -25.51,-13.999999 -25.51,-24.809999 0,-12.05 9.39,-23.38 30.12,-23.38 12.58,0 23.57,5.49 26,6.91 l -3.37,13.47 a 44.59,44.59 0 0 0 -22.14,-6.38 c -8.32,0 -12.4,2.83 -12.4,7.44 0,5.13 5.32,7.44 13.46,9.39 20.2,4.25 28.35,13.639999 28.35,23.919999 0.04,16.47 -12.01,26.57 -31.68,26.57 z"
     id="path6"
     style="fill:#000000" />
  <rect
     class="cls-1"
     x="38.689999"
     y="13.029999"
     width="24.09"
     height="50.02"
     id="rect6"
     style="fill:#000000" />
  <rect
     class="cls-1"
     x="38.689999"
     y="115.78"
     width="24.09"
     height="50.02"
     id="rect7"
     style="fill:#000000" />
  <rect
     class="cls-2"
     x="38.689999"
     y="77.649994"
     width="24.09"
     height="23.6"
     id="rect8" />
  <rect
     class="cls-1"
     x="0"
     y="54.160004"
     width="24.09"
     height="166.27"
     id="rect9"
     style="fill:#000000" />
  <rect
     class="cls-1"
     x="76.589996"
     y="157.05"
     width="24.09"
     height="50.02"
     id="rect10"
     style="fill:#000000" />
  <rect
     class="cls-1"
     x="76.589996"
     y="54.220001"
     width="24.09"
     height="50.02"
     id="rect11"
     style="fill:#000000" />
  <rect
     class="cls-3"
     x="76.589996"
     y="118.84"
     width="24.09"
     height="23.6"
     id="rect12" />
  <rect
     class="cls-1"
     x="114.48"
     y="0"
     width="24.09"
     height="166.27"
     id="rect13"
     style="fill:#000000" />
</svg>
